<?xml version="1.0" encoding="UTF-8" standalone="no"?>
<!DOCTYPE svg PUBLIC "-//W3C//DTD SVG 1.1//EN" "http://www.w3.org/Graphics/SVG/1.1/DTD/svg11.dtd">
<svg width="100%" height="100%" viewBox="0 0 343 343" version="1.1" xmlns="http://www.w3.org/2000/svg" xmlns:xlink="http://www.w3.org/1999/xlink" xml:space="preserve" xmlns:serif="http://www.serif.com/" style="fill-rule:evenodd;clip-rule:evenodd;stroke-linejoin:round;stroke-miterlimit:2;">
    <g transform="matrix(1,0,0,1,-849.55,-444.85)">
        <g transform="matrix(1,0,0,1,-28,-651)">
            <g id="Logo-Black" serif:id="Logo Black" transform="matrix(0.683413,0,0,0.683413,-435.013158,-577.965311)">
                <g transform="matrix(0.278667,0,0,0.278667,1753.4,2114.8)">
                    <path d="M1302.513,1877.565C1230.494,1828.616 1143.563,1800 1050,1800L600,1800L600,1200L1050,1200C1210.998,1200 1363.582,1236.314 1500,1301.19C1582.393,1340.373 1658.888,1389.976 1727.78,1448.289L1302.513,1877.565ZM2060.722,1964.745C2086.309,2055.462 2100,2151.145 2100,2250L2100,3000L1500,3000L1500,2530.754L2060.722,1964.745Z"/>
                </g>
                <g transform="matrix(0.278667,0,0,0.278667,1753.4,2114.8)">
                    <path d="M1035.136,3000L600,3000L600,2586.701L1302.513,1877.565C1421.668,1958.553 1500,2095.201 1500,2250L1500,2530.754L1035.136,3000Z"/>
                </g>
                <g transform="matrix(0.278667,0,0,0.278667,1753.4,2114.8)">
                    <path d="M1808.886,1524.629C1783.219,1497.785 1756.144,1472.299 1727.78,1448.289L1973.75,1200L2400,1200L2400,1622.269L2060.722,1964.745C2044.637,1907.719 2023.851,1852.655 1998.81,1800C1950.358,1698.117 1885.973,1605.25 1808.886,1524.629Z"/>
                </g>
            </g>
        </g>
    </g>
</svg>
